<?xml version="1.0" standalone="no"?>
<!DOCTYPE svg PUBLIC "-//W3C//DTD SVG 20010904//EN"
 "http://www.w3.org/TR/2001/REC-SVG-20010904/DTD/svg10.dtd">
<svg version="1.0" xmlns="http://www.w3.org/2000/svg"
 width="496.000000pt" height="287.000000pt" viewBox="0 0 496.000000 287.000000"
 preserveAspectRatio="xMidYMid meet">
<metadata>
Created by potrace 1.10, written by Peter Selinger 2001-2011
</metadata>
<g transform="translate(0.000000,287.000000) scale(0.100000,-0.100000)"
fill="#000000" stroke="none">
<path d="M2173 2505 c-31 -13 -53 -58 -53 -110 0 -54 -87 -316 -148 -445 -36
-78 -104 -189 -153 -251 l-29 -37 -73 26 c-99 35 -248 38 -319 5 -65 -30 -142
-104 -166 -161 -68 -158 -44 -390 55 -540 106 -159 364 -282 594 -282 203 0
388 69 510 190 106 106 151 230 151 420 0 148 -25 224 -98 297 -29 30 -74 63
-100 74 -62 28 -173 35 -251 16 -35 -8 -63 -12 -63 -8 0 3 29 62 64 131 73
142 112 238 146 358 13 45 27 82 31 82 4 0 43 -38 86 -84 133 -143 234 -296
287 -438 29 -76 27 -78 -44 -53 -68 24 -75 20 -42 -22 75 -96 102 -187 102
-348 0 -194 -44 -331 -149 -468 -29 -38 -49 -72 -45 -76 17 -15 92 -40 167
-55 164 -34 367 -9 512 63 95 47 196 140 238 218 60 113 86 313 58 444 -26
124 -119 223 -238 255 -79 21 -175 14 -281 -22 -41 -13 -75 -23 -76 -22 -1 2
-12 37 -25 78 -64 206 -187 400 -378 595 -91 93 -183 168 -218 178 -11 4 -34
0 -52 -8z"/>
</g>
</svg>
